<?xml version="1.0" encoding="UTF-8"?>
<!DOCTYPE svg PUBLIC "-//W3C//DTD SVG 1.1//EN" "http://www.w3.org/Graphics/SVG/1.1/DTD/svg11.dtd">
<svg xmlns="http://www.w3.org/2000/svg" version="1.1" width="512px" height="512px" style="shape-rendering:geometricPrecision; text-rendering:geometricPrecision; image-rendering:optimizeQuality; fill-rule:evenodd; clip-rule:evenodd" xmlns:xlink="http://www.w3.org/1999/xlink">
<g><path style="opacity:0.982" fill="#9bd8f8" d="M 210.5,-0.5 C 214.167,-0.5 217.833,-0.5 221.5,-0.5C 224.758,0.920984 227.258,3.25432 229,6.5C 230.339,11.7364 230.839,17.0698 230.5,22.5C 230.5,25.8333 230.5,29.1667 230.5,32.5C 230.5,32.8333 230.5,33.1667 230.5,33.5C 229.596,34.209 229.263,35.209 229.5,36.5C 223.797,44.5635 216.464,46.3968 207.5,42C 205.383,40.2691 203.883,38.1024 203,35.5C 202.828,29.3193 202.328,23.3193 201.5,17.5C 201.5,16.5 201.5,15.5 201.5,14.5C 201.658,7.69956 204.658,2.69956 210.5,-0.5 Z"/></g>
<g><path style="opacity:0.981" fill="#9ad7f8" d="M 285.5,-0.5 C 289.167,-0.5 292.833,-0.5 296.5,-0.5C 302.8,2.42167 305.8,7.42167 305.5,14.5C 305.5,21.1667 305.5,27.8333 305.5,34.5C 299.693,44.7131 291.693,46.8797 281.5,41C 279.875,38.9052 278.542,36.7385 277.5,34.5C 277.5,34.1667 277.5,33.8333 277.5,33.5C 277.815,29.6286 277.482,25.9619 276.5,22.5C 276.5,22.1667 276.5,21.8333 276.5,21.5C 274.849,12.0911 277.849,4.75772 285.5,-0.5 Z"/></g>
<g><path style="opacity:0.989" fill="#49b1f6" d="M 201.5,14.5 C 201.5,15.5 201.5,16.5 201.5,17.5C 201.5,37.1667 201.5,56.8333 201.5,76.5C 201.443,77.609 201.11,78.609 200.5,79.5C 192.36,87.7456 184.527,87.4123 177,78.5C 175.883,63.7283 175.05,49.0617 174.5,34.5C 173.901,27.6086 174.735,20.942 177,14.5C 185.165,6.53681 193.332,6.53681 201.5,14.5 Z"/></g>
<g><path style="opacity:0.99" fill="#4bb1f5" d="M 332.5,33.5 C 332.667,47.1707 332.5,60.8374 332,74.5C 327.768,84.7989 320.602,87.6322 310.5,83C 308.959,81.6288 307.625,80.1288 306.5,78.5C 305.517,63.9116 305.184,49.245 305.5,34.5C 305.5,27.8333 305.5,21.1667 305.5,14.5C 311.627,8.1919 318.627,7.02523 326.5,11C 329.135,12.9605 330.969,15.4605 332,18.5C 332.499,23.4889 332.666,28.4889 332.5,33.5 Z"/></g>
<g><path style="opacity:0.972" fill="#ffdd3f" d="M 276.5,21.5 C 276.5,21.8333 276.5,22.1667 276.5,22.5C 276.5,25.8333 276.5,29.1667 276.5,32.5C 261.167,32.5 245.833,32.5 230.5,32.5C 230.5,29.1667 230.5,25.8333 230.5,22.5C 245.798,21.5474 261.131,21.214 276.5,21.5 Z"/></g>
<g><path style="opacity:1" fill="#bccc7c" d="M 276.5,22.5 C 277.482,25.9619 277.815,29.6286 277.5,33.5C 266.833,33.5 256.167,33.5 245.5,33.5C 240.5,33.5 235.5,33.5 230.5,33.5C 230.5,33.1667 230.5,32.8333 230.5,32.5C 245.833,32.5 261.167,32.5 276.5,32.5C 276.5,29.1667 276.5,25.8333 276.5,22.5 Z"/></g>
<g><path style="opacity:1" fill="#49b1f7" d="M 230.5,33.5 C 235.5,33.5 240.5,33.5 245.5,33.5C 255.578,38.029 258.078,45.3624 253,55.5C 251.27,57.4019 249.437,59.0686 247.5,60.5C 241.833,60.5 236.167,60.5 230.5,60.5C 229.508,52.6841 229.174,44.6841 229.5,36.5C 229.263,35.209 229.596,34.209 230.5,33.5 Z"/></g>
<g><path style="opacity:1" fill="#1f9ef4" d="M 245.5,33.5 C 256.167,33.5 266.833,33.5 277.5,33.5C 277.5,33.8333 277.5,34.1667 277.5,34.5C 277.5,43.1667 277.5,51.8333 277.5,60.5C 267.5,60.5 257.5,60.5 247.5,60.5C 249.437,59.0686 251.27,57.4019 253,55.5C 258.078,45.3624 255.578,38.029 245.5,33.5 Z"/></g>
<g><path style="opacity:0.997" fill="#fedc40" d="M 332.5,33.5 C 372.616,46.7101 406.949,68.7101 435.5,99.5C 429.173,97.7813 422.839,95.948 416.5,94C 406.106,92.1847 395.773,92.1847 385.5,94C 383.771,95.7889 383.104,97.9556 383.5,100.5C 375.792,101.701 370.625,106.034 368,113.5C 367.333,142.5 367.333,171.5 368,200.5C 369.685,207.35 373.852,211.683 380.5,213.5C 418.687,214.812 457.02,214.812 495.5,213.5C 498.55,227.664 500.217,241.997 500.5,256.5C 483.014,249.617 465.014,244.45 446.5,241C 430.684,238.552 415.018,239.219 399.5,243C 389.756,246.619 381.256,252.119 374,259.5C 360.388,277.044 349.055,296.044 340,316.5C 335.903,326.473 334.57,336.806 336,347.5C 338.514,358.013 344.681,365.513 354.5,370C 367.5,375 380.5,380 393.5,385C 416.333,394.877 429.333,412.044 432.5,436.5C 425.443,444.191 417.776,451.191 409.5,457.5C 408.02,447.309 404.853,437.642 400,428.5C 395.701,423.195 390.534,419.028 384.5,416C 366.409,410.582 348.742,404.082 331.5,396.5C 324.473,392.656 317.14,389.323 309.5,386.5C 304.457,382.535 299.623,378.202 295,373.5C 291.4,368.301 288.9,362.635 287.5,356.5C 302.728,339.849 311.394,320.182 313.5,297.5C 317.803,298.204 321.303,296.87 324,293.5C 326.596,284.379 329.596,275.379 333,266.5C 333.912,262.548 333.245,258.881 331,255.5C 329.266,253.549 327.099,252.549 324.5,252.5C 324.427,242.693 325.594,233.026 328,223.5C 330.915,213.088 334.415,202.921 338.5,193C 334.094,176.843 325.427,163.509 312.5,153C 306.894,149.364 300.894,146.53 294.5,144.5C 293.417,143.635 293.251,142.635 294,141.5C 296.308,140.359 298.141,138.692 299.5,136.5C 299.023,135.522 298.357,134.689 297.5,134C 279.121,130.647 260.787,129.813 242.5,131.5C 219.053,133.379 201.719,144.545 190.5,165C 179.96,168.008 171.46,173.841 165,182.5C 162.971,185.552 161.804,188.886 161.5,192.5C 164.968,204.74 168.134,217.073 171,229.5C 172.538,237.096 173.371,244.763 173.5,252.5C 165.383,254.153 162.217,259.153 164,267.5C 167.808,275.116 170.474,283.116 172,291.5C 174.353,296.26 178.186,298.26 183.5,297.5C 185.901,319.965 194.567,339.631 209.5,356.5C 205.606,369.394 197.94,379.394 186.5,386.5C 179.309,389.597 172.309,392.93 165.5,396.5C 149.445,403.019 133.112,408.852 116.5,414C 100.74,419.672 91.7401,430.838 89.5,447.5C 81.1321,440.133 73.4654,432.133 66.5,423.5C 67.4959,423.414 68.3292,423.748 69,424.5C 72.2275,411.869 79.0609,401.703 89.5,394C 95.8455,389.826 102.512,386.159 109.5,383C 122.246,378.196 134.913,373.196 147.5,368C 162.421,356.978 166.921,342.478 161,324.5C 151.449,297.548 136.949,273.715 117.5,253C 106.761,245.308 94.7614,240.975 81.5,240C 57.0685,239.12 33.4018,242.953 10.5,251.5C 11.5438,234.238 14.2105,217.238 18.5,200.5C 22.4477,205.471 26.781,210.304 31.5,215C 36.7487,218.638 42.582,220.472 49,220.5C 53.8291,220.042 58.6625,219.709 63.5,219.5C 76.1072,222.356 86.9406,219.023 96,209.5C 105.911,196.342 112.578,181.676 116,165.5C 116.886,156.105 116.553,146.772 115,137.5C 107.908,120.036 95.0752,113.203 76.5,117C 73.6902,117.906 71.0236,119.073 68.5,120.5C 68.4593,116.384 67.7927,112.384 66.5,108.5C 81.7964,106.537 90.4631,97.8703 92.5,82.5C 116.676,61.4011 144.01,45.4011 174.5,34.5C 175.05,49.0617 175.883,63.7283 177,78.5C 184.527,87.4123 192.36,87.7456 200.5,79.5C 201.167,80.8333 201.833,82.1667 202.5,83.5C 206.384,94.7562 213.717,97.5896 224.5,92C 226.617,90.2691 228.117,88.1024 229,85.5C 229.171,77.3228 229.671,69.3228 230.5,61.5C 246.167,61.5 261.833,61.5 277.5,61.5C 277.334,69.1739 277.5,76.8406 278,84.5C 281.889,94.0201 288.723,96.8534 298.5,93C 303.177,89.1357 305.844,84.3024 306.5,78.5C 307.625,80.1288 308.959,81.6288 310.5,83C 320.602,87.6322 327.768,84.7989 332,74.5C 332.5,60.8374 332.667,47.1707 332.5,33.5 Z"/></g>
<g><path style="opacity:1" fill="#72c2f8" d="M 201.5,17.5 C 202.328,23.3193 202.828,29.3193 203,35.5C 203.883,38.1024 205.383,40.2691 207.5,42C 216.464,46.3968 223.797,44.5635 229.5,36.5C 229.174,44.6841 229.508,52.6841 230.5,60.5C 230.5,60.8333 230.5,61.1667 230.5,61.5C 229.671,69.3228 229.171,77.3228 229,85.5C 228.117,88.1024 226.617,90.2691 224.5,92C 213.717,97.5896 206.384,94.7562 202.5,83.5C 202.802,80.9407 202.468,78.6074 201.5,76.5C 201.5,56.8333 201.5,37.1667 201.5,17.5 Z"/></g>
<g><path style="opacity:1" fill="#73c2f6" d="M 277.5,34.5 C 278.542,36.7385 279.875,38.9052 281.5,41C 291.693,46.8797 299.693,44.7131 305.5,34.5C 305.184,49.245 305.517,63.9116 306.5,78.5C 305.844,84.3024 303.177,89.1357 298.5,93C 288.723,96.8534 281.889,94.0201 278,84.5C 277.5,76.8406 277.334,69.1739 277.5,61.5C 261.833,61.5 246.167,61.5 230.5,61.5C 230.5,61.1667 230.5,60.8333 230.5,60.5C 236.167,60.5 241.833,60.5 247.5,60.5C 257.5,60.5 267.5,60.5 277.5,60.5C 277.5,51.8333 277.5,43.1667 277.5,34.5 Z"/></g>
<g><path style="opacity:0.98" fill="#88ce64" d="M 92.5,82.5 C 90.4631,97.8703 81.7964,106.537 66.5,108.5C 63.201,102.546 59.5344,96.8798 55.5,91.5C 56.8474,88.6337 58.8474,86.1337 61.5,84C 66.995,81.542 72.6617,79.542 78.5,78C 82.5927,76.2061 86.426,74.0394 90,71.5C 90.772,71.6448 91.4387,71.9781 92,72.5C 92.4983,75.8168 92.665,79.1501 92.5,82.5 Z"/></g>
<g><path style="opacity:1" fill="#bdd095" d="M 201.5,76.5 C 202.468,78.6074 202.802,80.9407 202.5,83.5C 201.833,82.1667 201.167,80.8333 200.5,79.5C 201.11,78.609 201.443,77.609 201.5,76.5 Z"/></g>
<g><path style="opacity:0.967" fill="#b4d566" d="M 55.5,91.5 C 59.5344,96.8798 63.201,102.546 66.5,108.5C 67.7927,112.384 68.4593,116.384 68.5,120.5C 68.5,121.5 68.5,122.5 68.5,123.5C 65.2686,130.176 60.7686,131.176 55,126.5C 54.0093,124.192 53.176,121.859 52.5,119.5C 50.4719,107.637 43.4719,100.47 31.5,98C 26.6764,94.0168 26.343,89.6835 30.5,85C 35.5886,83.0559 40.5886,83.3892 45.5,86C 48.7405,88.0906 52.0738,89.9239 55.5,91.5 Z"/></g>
<g><path style="opacity:0.994" fill="#e8edfe" d="M 490.5,100.5 C 490.5,116.167 490.5,131.833 490.5,147.5C 490.667,159.505 490.5,171.505 490,183.5C 489.535,184.931 488.701,186.097 487.5,187C 478.935,188.275 470.268,188.942 461.5,189C 453.266,191.309 444.933,193.142 436.5,194.5C 436.5,163.167 436.5,131.833 436.5,100.5C 452.724,92.7159 469.724,90.2159 487.5,93C 490.041,94.8484 491.041,97.3484 490.5,100.5 Z"/></g>
<g><path style="opacity:1" fill="#d3dbfa" d="M 435.5,99.5 C 436.167,99.5 436.5,99.8333 436.5,100.5C 436.5,131.833 436.5,163.167 436.5,194.5C 427.78,192.977 419.113,191.143 410.5,189C 403.167,188.667 395.833,188.333 388.5,188C 386.714,187.215 385.214,186.049 384,184.5C 383.5,156.502 383.333,128.502 383.5,100.5C 383.104,97.9556 383.771,95.7889 385.5,94C 395.773,92.1847 406.106,92.1847 416.5,94C 422.839,95.948 429.173,97.7813 435.5,99.5 Z"/></g>
<g><path style="opacity:0.982" fill="#ff7085" d="M 490.5,100.5 C 497.482,101.313 502.315,104.98 505,111.5C 505.5,123.495 505.667,135.495 505.5,147.5C 500.315,154.072 495.315,154.072 490.5,147.5C 490.5,131.833 490.5,116.167 490.5,100.5 Z"/></g>
<g><path style="opacity:1" fill="#e81655" d="M 383.5,100.5 C 383.333,128.502 383.5,156.502 384,184.5C 385.214,186.049 386.714,187.215 388.5,188C 395.833,188.333 403.167,188.667 410.5,189C 419.113,191.143 427.78,192.977 436.5,194.5C 430.378,200.386 430.044,206.552 435.5,213C 417.17,213.5 398.836,213.667 380.5,213.5C 373.852,211.683 369.685,207.35 368,200.5C 367.333,171.5 367.333,142.5 368,113.5C 370.625,106.034 375.792,101.701 383.5,100.5 Z"/></g>
<g><path style="opacity:1" fill="#bec8f7" d="M 403.5,108.5 C 408.179,108.334 412.845,108.501 417.5,109C 422.986,114.081 422.653,118.748 416.5,123C 412.167,123.667 407.833,123.667 403.5,123C 396.914,118.122 396.914,113.288 403.5,108.5 Z"/></g>
<g><path style="opacity:1" fill="#bec8f7" d="M 456.5,108.5 C 461.179,108.334 465.845,108.501 470.5,109C 475.986,114.081 475.653,118.748 469.5,123C 465.167,123.667 460.833,123.667 456.5,123C 452.723,120.089 451.556,116.256 453,111.5C 454.145,110.364 455.312,109.364 456.5,108.5 Z"/></g>
<g><path style="opacity:0.992" fill="#e80254" d="M 52.5,119.5 C 53.176,121.859 54.0093,124.192 55,126.5C 60.7686,131.176 65.2686,130.176 68.5,123.5C 72.1135,125.824 72.4468,128.657 69.5,132C 62.8551,135.814 56.6884,135.314 51,130.5C 46.7811,133.052 43.6145,136.552 41.5,141C 49.2768,143.218 51.2768,147.885 47.5,155C 59.4068,160.696 61.4068,168.696 53.5,179C 60.0702,182.655 62.2368,188.155 60,195.5C 57.8762,198.968 55.0429,201.635 51.5,203.5C 55.5575,209.452 59.5575,214.786 63.5,219.5C 58.6625,219.709 53.8291,220.042 49,220.5C 42.582,220.472 36.7487,218.638 31.5,215C 26.781,210.304 22.4477,205.471 18.5,200.5C 12.9777,191.115 8.81107,181.115 6,170.5C 5.08522,158.442 5.41855,146.442 7,134.5C 14.4221,120.038 26.2554,113.871 42.5,116C 45.9553,116.898 49.2887,118.065 52.5,119.5 Z"/></g>
<g><path style="opacity:1" fill="#fe4254" d="M 63.5,219.5 C 59.5575,214.786 55.5575,209.452 51.5,203.5C 55.0429,201.635 57.8762,198.968 60,195.5C 62.2368,188.155 60.0702,182.655 53.5,179C 61.4068,168.696 59.4068,160.696 47.5,155C 51.2768,147.885 49.2768,143.218 41.5,141C 43.6145,136.552 46.7811,133.052 51,130.5C 56.6884,135.314 62.8551,135.814 69.5,132C 72.4468,128.657 72.1135,125.824 68.5,123.5C 68.5,122.5 68.5,121.5 68.5,120.5C 71.0236,119.073 73.6902,117.906 76.5,117C 95.0752,113.203 107.908,120.036 115,137.5C 116.553,146.772 116.886,156.105 116,165.5C 112.578,181.676 105.911,196.342 96,209.5C 86.9406,219.023 76.1072,222.356 63.5,219.5 Z"/></g>
<g><path style="opacity:1" fill="#6e5d75" d="M 242.5,131.5 C 260.787,129.813 279.121,130.647 297.5,134C 298.357,134.689 299.023,135.522 299.5,136.5C 298.141,138.692 296.308,140.359 294,141.5C 293.251,142.635 293.417,143.635 294.5,144.5C 300.894,146.53 306.894,149.364 312.5,153C 325.427,163.509 334.094,176.843 338.5,193C 334.415,202.921 330.915,213.088 328,223.5C 325.594,233.026 324.427,242.693 324.5,252.5C 322.379,252.325 320.379,252.659 318.5,253.5C 315.22,248.274 312.387,242.607 310,236.5C 310.097,226.029 309.097,215.696 307,205.5C 301.701,192.675 292.034,187.008 278,188.5C 267.745,189.774 257.579,191.441 247.5,193.5C 251.463,189.036 255.63,184.702 260,180.5C 268.31,167.612 265.143,158.779 250.5,154C 241.534,148.449 239.534,141.115 244.5,132C 243.906,131.536 243.239,131.369 242.5,131.5 Z"/></g>
<g><path style="opacity:1" fill="#56415e" d="M 242.5,131.5 C 243.239,131.369 243.906,131.536 244.5,132C 239.534,141.115 241.534,148.449 250.5,154C 265.143,158.779 268.31,167.612 260,180.5C 255.63,184.702 251.463,189.036 247.5,193.5C 246.833,193.5 246.167,193.5 245.5,193.5C 239.106,192.314 232.772,190.814 226.5,189C 216.124,187.103 206.458,188.77 197.5,194C 193.242,198.348 190.408,203.514 189,209.5C 187.813,218.783 187.147,228.117 187,237.5C 183.693,242.772 181.526,248.439 180.5,254.5C 178.412,253.061 176.079,252.394 173.5,252.5C 173.371,244.763 172.538,237.096 171,229.5C 168.134,217.073 164.968,204.74 161.5,192.5C 161.804,188.886 162.971,185.552 165,182.5C 171.46,173.841 179.96,168.008 190.5,165C 201.719,144.545 219.053,133.379 242.5,131.5 Z"/></g>
<g><path style="opacity:1" fill="#bec8f7" d="M 404.5,131.5 C 409.846,130.854 414.846,131.688 419.5,134C 422.448,138.595 421.781,142.595 417.5,146C 412.5,146.667 407.5,146.667 402.5,146C 396.749,140.26 397.415,135.427 404.5,131.5 Z"/></g>
<g><path style="opacity:1" fill="#bfc9f7" d="M 457.5,131.5 C 462.846,130.854 467.846,131.688 472.5,134C 475.6,138.733 474.934,142.733 470.5,146C 465.5,146.667 460.5,146.667 455.5,146C 449.947,140.366 450.613,135.533 457.5,131.5 Z"/></g>
<g><path style="opacity:1" fill="#ff6f84" d="M 85.5,135.5 C 92.9852,135.483 96.4852,139.15 96,146.5C 93.646,152.095 89.4793,153.928 83.5,152C 77.7309,145.653 78.3976,140.153 85.5,135.5 Z"/></g>
<g><path style="opacity:0.994" fill="#fe4355" d="M 490.5,147.5 C 495.315,154.072 500.315,154.072 505.5,147.5C 505.667,166.17 505.5,184.836 505,203.5C 503.343,208.322 500.176,211.656 495.5,213.5C 457.02,214.812 418.687,214.812 380.5,213.5C 398.836,213.667 417.17,213.5 435.5,213C 430.044,206.552 430.378,200.386 436.5,194.5C 444.933,193.142 453.266,191.309 461.5,189C 470.268,188.942 478.935,188.275 487.5,187C 488.701,186.097 489.535,184.931 490,183.5C 490.5,171.505 490.667,159.505 490.5,147.5 Z"/></g>
<g><path style="opacity:1" fill="#bec8f7" d="M 403.5,155.5 C 408.628,155.112 413.628,155.612 418.5,157C 422.826,162.044 422.16,166.378 416.5,170C 411.382,170.888 406.382,170.555 401.5,169C 397.188,163.731 397.855,159.231 403.5,155.5 Z"/></g>
<g><path style="opacity:1" fill="#bec8f7" d="M 456.5,155.5 C 461.628,155.112 466.628,155.612 471.5,157C 475.826,162.044 475.16,166.378 469.5,170C 464.382,170.888 459.382,170.555 454.5,169C 451.409,163.799 452.075,159.299 456.5,155.5 Z"/></g>
<g><path style="opacity:1" fill="#fea97b" d="M 245.5,193.5 C 241.377,198.076 238.544,203.409 237,209.5C 236.667,217.833 236.333,226.167 236,234.5C 233.408,240.022 231.075,245.689 229,251.5C 228.333,257.5 228.333,263.5 229,269.5C 230.231,284.945 232.231,300.278 235,315.5C 240.9,337.647 253.4,354.981 272.5,367.5C 277.799,364.195 282.799,360.528 287.5,356.5C 288.9,362.635 291.4,368.301 295,373.5C 299.623,378.202 304.457,382.535 309.5,386.5C 304.94,415.228 288.606,433.395 260.5,441C 250.558,443.271 240.892,442.771 231.5,439.5C 233.74,438.432 235.574,436.766 237,434.5C 243.214,421.902 246.881,408.569 248,394.5C 248.5,387.508 248.666,380.508 248.5,373.5C 241.538,373.941 234.871,372.774 228.5,370C 221.454,366.446 215.12,361.946 209.5,356.5C 194.567,339.631 185.901,319.965 183.5,297.5C 182.986,285.247 181.653,273.081 179.5,261C 179.653,258.784 179.986,256.617 180.5,254.5C 181.526,248.439 183.693,242.772 187,237.5C 187.147,228.117 187.813,218.783 189,209.5C 190.408,203.514 193.242,198.348 197.5,194C 206.458,188.77 216.124,187.103 226.5,189C 232.772,190.814 239.106,192.314 245.5,193.5 Z"/></g>
<g><path style="opacity:1" fill="#fec6aa" d="M 318.5,253.5 C 316.279,268.056 314.612,282.722 313.5,297.5C 311.394,320.182 302.728,339.849 287.5,356.5C 282.799,360.528 277.799,364.195 272.5,367.5C 253.4,354.981 240.9,337.647 235,315.5C 232.231,300.278 230.231,284.945 229,269.5C 228.333,263.5 228.333,257.5 229,251.5C 231.075,245.689 233.408,240.022 236,234.5C 236.333,226.167 236.667,217.833 237,209.5C 238.544,203.409 241.377,198.076 245.5,193.5C 246.167,193.5 246.833,193.5 247.5,193.5C 257.579,191.441 267.745,189.774 278,188.5C 292.034,187.008 301.701,192.675 307,205.5C 309.097,215.696 310.097,226.029 310,236.5C 312.387,242.607 315.22,248.274 318.5,253.5 Z"/></g>
<g><path style="opacity:1" fill="#ffe88c" d="M 66.5,423.5 C 26.0567,373.499 7.39006,316.166 10.5,251.5C 33.4018,242.953 57.0685,239.12 81.5,240C 94.7614,240.975 106.761,245.308 117.5,253C 136.949,273.715 151.449,297.548 161,324.5C 166.921,342.478 162.421,356.978 147.5,368C 134.913,373.196 122.246,378.196 109.5,383C 102.512,386.159 95.8455,389.826 89.5,394C 79.0609,401.703 72.2275,411.869 69,424.5C 68.3292,423.748 67.4959,423.414 66.5,423.5 Z"/></g>
<g><path style="opacity:1" fill="#ffe88c" d="M 500.5,256.5 C 502.813,326.264 480.146,386.264 432.5,436.5C 429.333,412.044 416.333,394.877 393.5,385C 380.5,380 367.5,375 354.5,370C 344.681,365.513 338.514,358.013 336,347.5C 334.57,336.806 335.903,326.473 340,316.5C 349.055,296.044 360.388,277.044 374,259.5C 381.256,252.119 389.756,246.619 399.5,243C 415.018,239.219 430.684,238.552 446.5,241C 465.014,244.45 483.014,249.617 500.5,256.5 Z"/></g>
<g><path style="opacity:1" fill="#fb945f" d="M 173.5,252.5 C 176.079,252.394 178.412,253.061 180.5,254.5C 179.986,256.617 179.653,258.784 179.5,261C 181.653,273.081 182.986,285.247 183.5,297.5C 178.186,298.26 174.353,296.26 172,291.5C 170.474,283.116 167.808,275.116 164,267.5C 162.217,259.153 165.383,254.153 173.5,252.5 Z"/></g>
<g><path style="opacity:1" fill="#feaa7a" d="M 324.5,252.5 C 327.099,252.549 329.266,253.549 331,255.5C 333.245,258.881 333.912,262.548 333,266.5C 329.596,275.379 326.596,284.379 324,293.5C 321.303,296.87 317.803,298.204 313.5,297.5C 314.612,282.722 316.279,268.056 318.5,253.5C 320.379,252.659 322.379,252.325 324.5,252.5 Z"/></g>
<g><path style="opacity:1" fill="#fb9460" d="M 209.5,356.5 C 215.12,361.946 221.454,366.446 228.5,370C 234.871,372.774 241.538,373.941 248.5,373.5C 248.666,380.508 248.5,387.508 248,394.5C 246.881,408.569 243.214,421.902 237,434.5C 235.574,436.766 233.74,438.432 231.5,439.5C 231.167,439.5 230.833,439.5 230.5,439.5C 205.227,430.612 190.561,412.946 186.5,386.5C 197.94,379.394 205.606,369.394 209.5,356.5 Z"/></g>
<g><path style="opacity:1" fill="#4bb0f5" d="M 186.5,386.5 C 190.561,412.946 205.227,430.612 230.5,439.5C 226.283,441.877 222.449,444.877 219,448.5C 217.036,453.58 217.203,458.58 219.5,463.5C 205.775,458.98 194.275,450.98 185,439.5C 176.126,427.471 170.292,414.138 167.5,399.5C 167.36,397.97 166.693,396.97 165.5,396.5C 172.309,392.93 179.309,389.597 186.5,386.5 Z"/></g>
<g><path style="opacity:1" fill="#73c2f8" d="M 309.5,386.5 C 317.14,389.323 324.473,392.656 331.5,396.5C 330.25,396.577 329.417,397.244 329,398.5C 321.362,438.471 297.529,461.971 257.5,469C 248.792,469.752 240.125,469.419 231.5,468C 227.123,467.303 223.123,465.803 219.5,463.5C 217.203,458.58 217.036,453.58 219,448.5C 222.449,444.877 226.283,441.877 230.5,439.5C 230.833,439.5 231.167,439.5 231.5,439.5C 240.892,442.771 250.558,443.271 260.5,441C 288.606,433.395 304.94,415.228 309.5,386.5 Z"/></g>
<g><path style="opacity:0.996" fill="#1f9ef3" d="M 165.5,396.5 C 166.693,396.97 167.36,397.97 167.5,399.5C 170.292,414.138 176.126,427.471 185,439.5C 194.275,450.98 205.775,458.98 219.5,463.5C 214.022,466.239 208.356,469.072 202.5,472C 190.76,479.721 187.093,490.221 191.5,503.5C 152.683,493.102 118.683,474.435 89.5,447.5C 91.7401,430.838 100.74,419.672 116.5,414C 133.112,408.852 149.445,403.019 165.5,396.5 Z"/></g>
<g><path style="opacity:0.994" fill="#49b1f6" d="M 331.5,396.5 C 348.742,404.082 366.409,410.582 384.5,416C 390.534,419.028 395.701,423.195 400,428.5C 404.853,437.642 408.02,447.309 409.5,457.5C 370.971,488.573 326.971,506.573 277.5,511.5C 262.833,511.5 248.167,511.5 233.5,511.5C 219.453,509.712 205.453,507.045 191.5,503.5C 187.093,490.221 190.76,479.721 202.5,472C 208.356,469.072 214.022,466.239 219.5,463.5C 223.123,465.803 227.123,467.303 231.5,468C 240.125,469.419 248.792,469.752 257.5,469C 297.529,461.971 321.362,438.471 329,398.5C 329.417,397.244 330.25,396.577 331.5,396.5 Z"/></g>
</svg>
