<?xml version="1.0" encoding="UTF-8"?>
<!DOCTYPE svg PUBLIC "-//W3C//DTD SVG 1.1//EN" "http://www.w3.org/Graphics/SVG/1.1/DTD/svg11.dtd">
<svg xmlns="http://www.w3.org/2000/svg" version="1.1" width="512px" height="512px" style="shape-rendering:geometricPrecision; text-rendering:geometricPrecision; image-rendering:optimizeQuality; fill-rule:evenodd; clip-rule:evenodd" xmlns:xlink="http://www.w3.org/1999/xlink">
<g><path style="opacity:0.993" fill="#3342ad" d="M 232.5,-0.5 C 247.833,-0.5 263.167,-0.5 278.5,-0.5C 282.021,0.306901 285.688,0.973568 289.5,1.5C 287.204,3.40057 285.371,5.7339 284,8.5C 283.5,15.8258 283.334,23.1591 283.5,30.5C 258.661,30.169 233.994,30.5023 209.5,31.5C 205.123,32.6215 201.956,35.2881 200,39.5C 199.501,45.4908 199.334,51.4908 199.5,57.5C 139.211,75.4601 95.5444,112.793 68.5,169.5C 60.8563,168.428 55.023,171.095 51,177.5C 49.6095,184.746 49.1095,192.079 49.5,199.5C 47.1432,199.337 44.8098,199.503 42.5,200C 39.0133,202.451 38.6799,205.284 41.5,208.5C 44.0841,209.393 46.7508,209.726 49.5,209.5C 49.5,212.833 49.5,216.167 49.5,219.5C 47.1432,219.337 44.8098,219.503 42.5,220C 39.0133,222.451 38.6799,225.284 41.5,228.5C 44.0841,229.393 46.7508,229.726 49.5,229.5C 49.5,232.833 49.5,236.167 49.5,239.5C 47.1432,239.337 44.8098,239.503 42.5,240C 39.0133,242.451 38.6799,245.284 41.5,248.5C 44.0841,249.393 46.7508,249.726 49.5,249.5C 49.5,252.833 49.5,256.167 49.5,259.5C 47.1432,259.337 44.8098,259.503 42.5,260C 39.0133,262.451 38.6799,265.284 41.5,268.5C 44.0841,269.393 46.7508,269.726 49.5,269.5C 49.5,292.833 49.5,316.167 49.5,339.5C 47.1432,339.337 44.8098,339.503 42.5,340C 39.0133,342.451 38.6799,345.284 41.5,348.5C 44.0841,349.393 46.7508,349.726 49.5,349.5C 49.5,352.833 49.5,356.167 49.5,359.5C 47.1432,359.337 44.8098,359.503 42.5,360C 39.0133,362.451 38.6799,365.284 41.5,368.5C 44.0841,369.393 46.7508,369.726 49.5,369.5C 49.5,372.833 49.5,376.167 49.5,379.5C 47.1432,379.337 44.8098,379.503 42.5,380C 39.0133,382.451 38.6799,385.284 41.5,388.5C 44.0841,389.393 46.7508,389.726 49.5,389.5C 49.5,392.833 49.5,396.167 49.5,399.5C 47.1667,399.5 44.8333,399.5 42.5,399.5C 18.434,362.636 4.10068,322.303 -0.5,278.5C -0.5,263.167 -0.5,247.833 -0.5,232.5C 10.3875,142.857 54.7208,75.3573 132.5,30C 163.971,13.3053 197.304,3.1386 232.5,-0.5 Z"/></g>
<g><path style="opacity:0.984" fill="#1ed588" d="M 292.5,-0.5 C 329.5,-0.5 366.5,-0.5 403.5,-0.5C 384.294,3.43273 369.627,13.7661 359.5,30.5C 334.167,30.5 308.833,30.5 283.5,30.5C 283.334,23.1591 283.5,15.8258 284,8.5C 285.371,5.7339 287.204,3.40057 289.5,1.5C 290.5,0.833333 291.5,0.166667 292.5,-0.5 Z"/></g>
<g><path style="opacity:1" fill="#35e197" d="M 403.5,-0.5 C 417.833,-0.5 432.167,-0.5 446.5,-0.5C 450.093,1.25648 452.926,3.92315 455,7.5C 455.5,36.8314 455.667,66.1648 455.5,95.5C 456.333,102.292 455.166,108.625 452,114.5C 450.745,115.211 449.579,116.044 448.5,117C 436.576,118.438 424.576,118.938 412.5,118.5C 412.667,92.4979 412.5,66.4979 412,40.5C 410.167,36 407,32.8333 402.5,31C 388.171,30.5001 373.837,30.3334 359.5,30.5C 369.627,13.7661 384.294,3.43273 403.5,-0.5 Z"/></g>
<g><path style="opacity:1" fill="#feb52d" d="M 209.5,31.5 C 244.502,31.3333 279.502,31.5 314.5,32C 287.464,39.2668 272.464,56.7668 269.5,84.5C 253.83,84.3334 238.163,84.5001 222.5,85C 219.833,88 219.833,91 222.5,94C 237.83,94.4999 253.163,94.6666 268.5,94.5C 272,122.988 287.667,140.822 315.5,148C 280.168,148.5 244.835,148.667 209.5,148.5C 204.447,146.947 201.28,143.614 200,138.5C 199.5,111.502 199.333,84.5021 199.5,57.5C 199.334,51.4908 199.501,45.4908 200,39.5C 201.956,35.2881 205.123,32.6215 209.5,31.5 Z"/></g>
<g><path style="opacity:1" fill="#fcbf50" d="M 209.5,31.5 C 233.994,30.5023 258.661,30.169 283.5,30.5C 308.833,30.5 334.167,30.5 359.5,30.5C 373.837,30.3334 388.171,30.5001 402.5,31C 407,32.8333 410.167,36 412,40.5C 412.5,66.4979 412.667,92.4979 412.5,118.5C 412.5,119.833 412.5,121.167 412.5,122.5C 412.666,128.176 412.499,133.843 412,139.5C 410.167,144 407,147.167 402.5,149C 337.999,149.832 273.665,149.665 209.5,148.5C 244.835,148.667 280.168,148.5 315.5,148C 287.667,140.822 272,122.988 268.5,94.5C 272.514,94.6655 276.514,94.4988 280.5,94C 283.167,91 283.167,88 280.5,85C 276.848,84.5014 273.182,84.3347 269.5,84.5C 272.464,56.7668 287.464,39.2668 314.5,32C 279.502,31.5 244.502,31.3333 209.5,31.5 Z"/></g>
<g><path style="opacity:1" fill="#ffa024" d="M 342.5,44.5 C 367.581,43.1108 384.414,54.1108 393,77.5C 397.518,100.638 389.685,118.138 369.5,130C 344.645,139.491 324.812,133.324 310,111.5C 298.636,83.9235 305.803,62.7569 331.5,48C 335.254,46.6912 338.921,45.5246 342.5,44.5 Z"/></g>
<g><path style="opacity:1" fill="#fbf0b4" d="M 378.5,108.5 C 362.32,111.663 348.82,106.997 338,94.5C 330.835,84.1712 328.335,72.8379 330.5,60.5C 344.306,52.3681 357.973,52.8681 371.5,62C 385.989,75.7596 388.323,91.2596 378.5,108.5 Z"/></g>
<g><path style="opacity:1" fill="#3d4ec5" d="M 199.5,57.5 C 199.333,84.5021 199.5,111.502 200,138.5C 201.28,143.614 204.447,146.947 209.5,148.5C 273.665,149.665 337.999,149.832 402.5,149C 407,147.167 410.167,144 412,139.5C 412.499,133.843 412.666,128.176 412.5,122.5C 450.994,168.657 466.66,221.657 459.5,281.5C 459.667,267.829 459.5,254.163 459,240.5C 457.707,235.374 454.54,232.04 449.5,230.5C 449.666,224.491 449.499,218.491 449,212.5C 446,208.5 443,208.5 440,212.5C 439.501,218.491 439.334,224.491 439.5,230.5C 434.483,232.018 431.316,235.352 430,240.5C 429.5,272.832 429.333,305.165 429.5,337.5C 429.5,347.167 429.5,356.833 429.5,366.5C 415.325,388.512 397.491,407.179 376,422.5C 375.5,404.836 375.333,387.17 375.5,369.5C 382.992,368.841 387.492,364.841 389,357.5C 389.815,331.124 389.649,304.791 388.5,278.5C 393.754,277.081 397.254,273.748 399,268.5C 399.667,242.5 399.667,216.5 399,190.5C 397.069,184.902 393.236,181.402 387.5,180C 377.839,179.5 368.172,179.334 358.5,179.5C 356.899,174.073 353.233,170.907 347.5,170C 264.834,169.5 182.167,169.333 99.5,169.5C 89.1667,169.5 78.8333,169.5 68.5,169.5C 95.5444,112.793 139.211,75.4601 199.5,57.5 Z"/></g>
<g><path style="opacity:1" fill="#fcf1b4" d="M 222.5,61.5 C 232.506,61.3335 242.506,61.5002 252.5,62C 256.5,65 256.5,68 252.5,71C 242.5,71.6667 232.5,71.6667 222.5,71C 219.888,67.8359 219.888,64.6693 222.5,61.5 Z"/></g>
<g><path style="opacity:1" fill="#ffd892" d="M 330.5,60.5 C 328.335,72.8379 330.835,84.1712 338,94.5C 348.82,106.997 362.32,111.663 378.5,108.5C 372.789,117.698 364.456,122.865 353.5,124C 329.369,124.206 316.369,112.206 314.5,88C 315.351,76.1204 320.684,66.9537 330.5,60.5 Z"/></g>
<g><path style="opacity:1" fill="#febf4f" d="M 354.5,82.5 C 351.167,81.1667 347.833,81.1667 344.5,82.5C 344.334,76.1579 344.5,69.8246 345,63.5C 348,59.5 351,59.5 354,63.5C 354.5,69.8246 354.666,76.1579 354.5,82.5 Z"/></g>
<g><path style="opacity:1" fill="#da3c38" d="M 354.5,82.5 C 354.611,83.1174 354.944,83.6174 355.5,84C 359.555,84.2315 363.555,84.7315 367.5,85.5C 370.32,88.716 369.987,91.5493 366.5,94C 362.833,94.3333 359.167,94.6667 355.5,95C 350.573,98.6553 346.073,98.1553 342,93.5C 340.812,89.2586 341.645,85.5919 344.5,82.5C 347.833,81.1667 351.167,81.1667 354.5,82.5 Z"/></g>
<g><path style="opacity:1" fill="#fcf1b5" d="M 269.5,84.5 C 273.182,84.3347 276.848,84.5014 280.5,85C 283.167,88 283.167,91 280.5,94C 276.514,94.4988 272.514,94.6655 268.5,94.5C 253.163,94.6666 237.83,94.4999 222.5,94C 219.833,91 219.833,88 222.5,85C 238.163,84.5001 253.83,84.3334 269.5,84.5 Z"/></g>
<g><path style="opacity:0.993" fill="#3342ae" d="M 455.5,95.5 C 487.656,135.501 506.323,181.168 511.5,232.5C 511.5,247.833 511.5,263.167 511.5,278.5C 506.511,327.486 489.177,371.486 459.5,410.5C 459.5,386.5 459.5,362.5 459.5,338.5C 459.5,319.5 459.5,300.5 459.5,281.5C 466.66,221.657 450.994,168.657 412.5,122.5C 412.5,121.167 412.5,119.833 412.5,118.5C 424.576,118.938 436.576,118.438 448.5,117C 449.579,116.044 450.745,115.211 452,114.5C 455.166,108.625 456.333,102.292 455.5,95.5 Z"/></g>
<g><path style="opacity:1" fill="#a4ace4" d="M 147.5,104.5 C 150.368,104.085 152.535,105.085 154,107.5C 154.499,111.486 154.666,115.486 154.5,119.5C 158.514,119.334 162.514,119.501 166.5,120C 170.5,123 170.5,126 166.5,129C 162.514,129.499 158.514,129.666 154.5,129.5C 154.666,133.514 154.499,137.514 154,141.5C 151,145.5 148,145.5 145,141.5C 144.501,137.514 144.334,133.514 144.5,129.5C 140.486,129.666 136.486,129.499 132.5,129C 128.5,126 128.5,123 132.5,120C 136.486,119.501 140.486,119.334 144.5,119.5C 144.334,115.486 144.501,111.486 145,107.5C 145.698,106.309 146.531,105.309 147.5,104.5 Z"/></g>
<g><path style="opacity:1" fill="#fcf1b5" d="M 222.5,107.5 C 236.171,107.333 249.837,107.5 263.5,108C 266.167,111 266.167,114 263.5,117C 249.833,117.667 236.167,117.667 222.5,117C 219.888,113.836 219.888,110.669 222.5,107.5 Z"/></g>
<g><path style="opacity:0.999" fill="#2cb2cc" d="M 68.5,169.5 C 78.8333,169.5 89.1667,169.5 99.5,169.5C 99.5,265.833 99.5,362.167 99.5,458.5C 80.8544,444.521 64.5211,428.188 50.5,409.5C 54.5,409.5 58.5,409.5 62.5,409.5C 67.1785,409.666 71.8452,409.499 76.5,409C 80.5,406 80.5,403 76.5,400C 71.8452,399.501 67.1785,399.334 62.5,399.5C 58.1667,399.5 53.8333,399.5 49.5,399.5C 49.5,396.167 49.5,392.833 49.5,389.5C 53.8333,389.5 58.1667,389.5 62.5,389.5C 67.1785,389.666 71.8452,389.499 76.5,389C 80.5,386 80.5,383 76.5,380C 71.8452,379.501 67.1785,379.334 62.5,379.5C 58.1667,379.5 53.8333,379.5 49.5,379.5C 49.5,376.167 49.5,372.833 49.5,369.5C 53.8333,369.5 58.1667,369.5 62.5,369.5C 67.1785,369.666 71.8452,369.499 76.5,369C 80.5,366 80.5,363 76.5,360C 71.8452,359.501 67.1785,359.334 62.5,359.5C 58.1667,359.5 53.8333,359.5 49.5,359.5C 49.5,356.167 49.5,352.833 49.5,349.5C 53.8333,349.5 58.1667,349.5 62.5,349.5C 67.1785,349.666 71.8452,349.499 76.5,349C 80.5,346 80.5,343 76.5,340C 71.8452,339.501 67.1785,339.334 62.5,339.5C 58.1667,339.5 53.8333,339.5 49.5,339.5C 49.5,316.167 49.5,292.833 49.5,269.5C 53.8333,269.5 58.1667,269.5 62.5,269.5C 67.1785,269.666 71.8452,269.499 76.5,269C 80.5,266 80.5,263 76.5,260C 71.8452,259.501 67.1785,259.334 62.5,259.5C 58.1667,259.5 53.8333,259.5 49.5,259.5C 49.5,256.167 49.5,252.833 49.5,249.5C 53.8333,249.5 58.1667,249.5 62.5,249.5C 67.1785,249.666 71.8452,249.499 76.5,249C 80.5,246 80.5,243 76.5,240C 71.8452,239.501 67.1785,239.334 62.5,239.5C 58.1667,239.5 53.8333,239.5 49.5,239.5C 49.5,236.167 49.5,232.833 49.5,229.5C 53.8333,229.5 58.1667,229.5 62.5,229.5C 67.1785,229.666 71.8452,229.499 76.5,229C 80.5,226 80.5,223 76.5,220C 71.8452,219.501 67.1785,219.334 62.5,219.5C 58.1667,219.5 53.8333,219.5 49.5,219.5C 49.5,216.167 49.5,212.833 49.5,209.5C 53.8333,209.5 58.1667,209.5 62.5,209.5C 67.1785,209.666 71.8452,209.499 76.5,209C 80.5,206 80.5,203 76.5,200C 71.8452,199.501 67.1785,199.334 62.5,199.5C 58.1667,199.5 53.8333,199.5 49.5,199.5C 49.1095,192.079 49.6095,184.746 51,177.5C 55.023,171.095 60.8563,168.428 68.5,169.5 Z"/></g>
<g><path style="opacity:0.999" fill="#7cd2e3" d="M 99.5,169.5 C 182.167,169.333 264.834,169.5 347.5,170C 353.233,170.907 356.899,174.073 358.5,179.5C 359.492,209.426 359.825,239.426 359.5,269.5C 359.5,289.833 359.5,310.167 359.5,330.5C 333.833,330.5 308.167,330.5 282.5,330.5C 245.165,330.333 207.832,330.5 170.5,331C 167.333,332.833 164.833,335.333 163,338.5C 162.333,372.5 162.333,406.5 163,440.5C 164.458,442.96 166.291,445.127 168.5,447C 205.08,448.487 241.747,448.987 278.5,448.5C 305.5,448.5 332.5,448.5 359.5,448.5C 359.5,462.167 359.5,475.833 359.5,489.5C 348.092,495.252 336.092,499.752 323.5,503C 308.524,506.715 293.524,509.548 278.5,511.5C 263.167,511.5 247.833,511.5 232.5,511.5C 186.146,506.437 143.813,490.604 105.5,464C 103.237,462.383 101.237,460.55 99.5,458.5C 99.5,362.167 99.5,265.833 99.5,169.5 Z"/></g>
<g><path style="opacity:1" fill="#e4554e" d="M 358.5,179.5 C 368.172,179.334 377.839,179.5 387.5,180C 393.236,181.402 397.069,184.902 399,190.5C 399.667,216.5 399.667,242.5 399,268.5C 397.254,273.748 393.754,277.081 388.5,278.5C 386.434,273.779 382.767,270.945 377.5,270C 371.509,269.501 365.509,269.334 359.5,269.5C 359.825,239.426 359.492,209.426 358.5,179.5 Z"/></g>
<g><path style="opacity:1" fill="#a1a9e3" d="M 442.5,189.5 C 447.665,189.162 449.831,191.495 449,196.5C 446,200.5 443,200.5 440,196.5C 439.162,193.519 439.995,191.186 442.5,189.5 Z"/></g>
<g><path style="opacity:1" fill="#a0a8e2" d="M 462.5,189.5 C 467.665,189.162 469.831,191.495 469,196.5C 466,200.5 463,200.5 460,196.5C 459.162,193.519 459.995,191.186 462.5,189.5 Z"/></g>
<g><path style="opacity:1" fill="#a0a8e2" d="M 482.5,189.5 C 487.665,189.162 489.831,191.495 489,196.5C 486,200.5 483,200.5 480,196.5C 479.162,193.519 479.995,191.186 482.5,189.5 Z"/></g>
<g><path style="opacity:1" fill="#fd9e24" d="M 49.5,199.5 C 53.8333,199.5 58.1667,199.5 62.5,199.5C 58.5,202.833 58.5,206.167 62.5,209.5C 58.1667,209.5 53.8333,209.5 49.5,209.5C 46.7508,209.726 44.0841,209.393 41.5,208.5C 38.6799,205.284 39.0133,202.451 42.5,200C 44.8098,199.503 47.1432,199.337 49.5,199.5 Z"/></g>
<g><path style="opacity:1" fill="#fec04e" d="M 62.5,199.5 C 67.1785,199.334 71.8452,199.501 76.5,200C 80.5,203 80.5,206 76.5,209C 71.8452,209.499 67.1785,209.666 62.5,209.5C 58.5,206.167 58.5,202.833 62.5,199.5 Z"/></g>
<g><path style="opacity:1" fill="#2fb1cc" d="M 449.5,230.5 C 446.133,229.253 442.799,229.253 439.5,230.5C 439.334,224.491 439.501,218.491 440,212.5C 443,208.5 446,208.5 449,212.5C 449.499,218.491 449.666,224.491 449.5,230.5 Z"/></g>
<g><path style="opacity:1" fill="#fd9e24" d="M 49.5,219.5 C 53.8333,219.5 58.1667,219.5 62.5,219.5C 58.5,222.833 58.5,226.167 62.5,229.5C 58.1667,229.5 53.8333,229.5 49.5,229.5C 46.7508,229.726 44.0841,229.393 41.5,228.5C 38.6799,225.284 39.0133,222.451 42.5,220C 44.8098,219.503 47.1432,219.337 49.5,219.5 Z"/></g>
<g><path style="opacity:1" fill="#fec04e" d="M 62.5,219.5 C 67.1785,219.334 71.8452,219.501 76.5,220C 80.5,223 80.5,226 76.5,229C 71.8452,229.499 67.1785,229.666 62.5,229.5C 58.5,226.167 58.5,222.833 62.5,219.5 Z"/></g>
<g><path style="opacity:1" fill="#feb42d" d="M 449.5,230.5 C 454.54,232.04 457.707,235.374 459,240.5C 459.5,254.163 459.667,267.829 459.5,281.5C 459.5,300.5 459.5,319.5 459.5,338.5C 453.349,350.359 444.683,352.526 433.5,345C 431.996,342.486 430.662,339.986 429.5,337.5C 429.333,305.165 429.5,272.832 430,240.5C 431.316,235.352 434.483,232.018 439.5,230.5C 442.799,229.253 446.133,229.253 449.5,230.5 Z"/></g>
<g><path style="opacity:1" fill="#fd9e24" d="M 49.5,239.5 C 53.8333,239.5 58.1667,239.5 62.5,239.5C 58.5,242.833 58.5,246.167 62.5,249.5C 58.1667,249.5 53.8333,249.5 49.5,249.5C 46.7508,249.726 44.0841,249.393 41.5,248.5C 38.6799,245.284 39.0133,242.451 42.5,240C 44.8098,239.503 47.1432,239.337 49.5,239.5 Z"/></g>
<g><path style="opacity:1" fill="#fec04e" d="M 62.5,239.5 C 67.1785,239.334 71.8452,239.501 76.5,240C 80.5,243 80.5,246 76.5,249C 71.8452,249.499 67.1785,249.666 62.5,249.5C 58.5,246.167 58.5,242.833 62.5,239.5 Z"/></g>
<g><path style="opacity:1" fill="#fd9e24" d="M 49.5,259.5 C 53.8333,259.5 58.1667,259.5 62.5,259.5C 58.5,262.833 58.5,266.167 62.5,269.5C 58.1667,269.5 53.8333,269.5 49.5,269.5C 46.7508,269.726 44.0841,269.393 41.5,268.5C 38.6799,265.284 39.0133,262.451 42.5,260C 44.8098,259.503 47.1432,259.337 49.5,259.5 Z"/></g>
<g><path style="opacity:1" fill="#fec04e" d="M 62.5,259.5 C 67.1785,259.334 71.8452,259.501 76.5,260C 80.5,263 80.5,266 76.5,269C 71.8452,269.499 67.1785,269.666 62.5,269.5C 58.5,266.167 58.5,262.833 62.5,259.5 Z"/></g>
<g><path style="opacity:1" fill="#fec150" d="M 359.5,269.5 C 365.509,269.334 371.509,269.501 377.5,270C 382.767,270.945 386.434,273.779 388.5,278.5C 389.649,304.791 389.815,331.124 389,357.5C 387.492,364.841 382.992,368.841 375.5,369.5C 375.167,369.5 374.833,369.5 374.5,369.5C 374.666,359.161 374.5,348.828 374,338.5C 371.104,332.365 366.271,329.698 359.5,330.5C 359.5,310.167 359.5,289.833 359.5,269.5 Z"/></g>
<g><path style="opacity:1" fill="#fef4f4" d="M 147.5,289.5 C 150.325,289.081 152.491,290.081 154,292.5C 154.499,296.486 154.666,300.486 154.5,304.5C 158.514,304.334 162.514,304.501 166.5,305C 170.5,308 170.5,311 166.5,314C 162.514,314.499 158.514,314.666 154.5,314.5C 154.666,318.514 154.499,322.514 154,326.5C 151,330.5 148,330.5 145,326.5C 144.501,322.514 144.334,318.514 144.5,314.5C 140.486,314.666 136.486,314.499 132.5,314C 128.5,311 128.5,308 132.5,305C 136.486,304.501 140.486,304.334 144.5,304.5C 144.334,300.486 144.501,296.486 145,292.5C 146.045,291.627 146.878,290.627 147.5,289.5 Z"/></g>
<g><path style="opacity:1" fill="#ebebf0" d="M 282.5,330.5 C 270.566,332.296 259.899,337.13 250.5,345C 249.748,345.671 249.414,346.504 249.5,347.5C 235.373,340.95 221.373,340.95 207.5,347.5C 193.868,353.639 185.035,363.972 181,378.5C 176.17,409.017 188.337,429.184 217.5,439C 229.855,440.975 241.521,439.141 252.5,433.5C 253.591,436.428 255.591,438.594 258.5,440C 265.074,443.348 271.741,446.182 278.5,448.5C 241.747,448.987 205.08,448.487 168.5,447C 166.291,445.127 164.458,442.96 163,440.5C 162.333,406.5 162.333,372.5 163,338.5C 164.833,335.333 167.333,332.833 170.5,331C 207.832,330.5 245.165,330.333 282.5,330.5 Z"/></g>
<g><path style="opacity:1" fill="#fef4f4" d="M 282.5,330.5 C 308.167,330.5 333.833,330.5 359.5,330.5C 366.271,329.698 371.104,332.365 374,338.5C 374.5,348.828 374.666,359.161 374.5,369.5C 374.667,393.169 374.5,416.836 374,440.5C 371.104,446.635 366.271,449.302 359.5,448.5C 332.5,448.5 305.5,448.5 278.5,448.5C 271.741,446.182 265.074,443.348 258.5,440C 255.591,438.594 253.591,436.428 252.5,433.5C 261.301,428.7 267.635,421.7 271.5,412.5C 275.335,405.944 277.002,398.778 276.5,391C 276.844,382.211 274.844,374.044 270.5,366.5C 273.462,363.036 276.629,359.703 280,356.5C 280.299,351.134 277.799,348.967 272.5,350C 269.631,353.038 266.631,355.871 263.5,358.5C 259.961,353.397 255.295,349.731 249.5,347.5C 249.414,346.504 249.748,345.671 250.5,345C 259.899,337.13 270.566,332.296 282.5,330.5 Z"/></g>
<g><path style="opacity:1" fill="#fd9e24" d="M 49.5,339.5 C 53.8333,339.5 58.1667,339.5 62.5,339.5C 58.5,342.833 58.5,346.167 62.5,349.5C 58.1667,349.5 53.8333,349.5 49.5,349.5C 46.7508,349.726 44.0841,349.393 41.5,348.5C 38.6799,345.284 39.0133,342.451 42.5,340C 44.8098,339.503 47.1432,339.337 49.5,339.5 Z"/></g>
<g><path style="opacity:1" fill="#fec04e" d="M 62.5,339.5 C 67.1785,339.334 71.8452,339.501 76.5,340C 80.5,343 80.5,346 76.5,349C 71.8452,349.499 67.1785,349.666 62.5,349.5C 58.5,346.167 58.5,342.833 62.5,339.5 Z"/></g>
<g><path style="opacity:1" fill="#ff9f22" d="M 429.5,337.5 C 430.662,339.986 431.996,342.486 433.5,345C 444.683,352.526 453.349,350.359 459.5,338.5C 459.5,362.5 459.5,386.5 459.5,410.5C 459.5,413.5 459.5,416.5 459.5,419.5C 449.5,419.5 439.5,419.5 429.5,419.5C 429.5,401.833 429.5,384.167 429.5,366.5C 429.5,356.833 429.5,347.167 429.5,337.5 Z"/></g>
<g><path style="opacity:1" fill="#35e197" d="M 249.5,347.5 C 255.295,349.731 259.961,353.397 263.5,358.5C 250.521,372.146 237.188,385.479 223.5,398.5C 217.479,393.146 211.812,387.479 206.5,381.5C 203.637,370.093 203.97,358.76 207.5,347.5C 221.373,340.95 235.373,340.95 249.5,347.5 Z"/></g>
<g><path style="opacity:1" fill="#20d688" d="M 207.5,347.5 C 203.97,358.76 203.637,370.093 206.5,381.5C 199.636,376.364 196.469,378.03 197,386.5C 204.833,394.333 212.667,402.167 220.5,410C 224.1,411.073 227.1,410.24 229.5,407.5C 229.937,409.074 230.937,410.241 232.5,411C 245.135,416.651 257.801,416.818 270.5,411.5C 271.107,411.624 271.44,411.957 271.5,412.5C 267.635,421.7 261.301,428.7 252.5,433.5C 241.521,439.141 229.855,440.975 217.5,439C 188.337,429.184 176.17,409.017 181,378.5C 185.035,363.972 193.868,353.639 207.5,347.5 Z"/></g>
<g><path style="opacity:1" fill="#147f50" d="M 270.5,366.5 C 256.5,379.833 242.833,393.5 229.5,407.5C 227.1,410.24 224.1,411.073 220.5,410C 212.667,402.167 204.833,394.333 197,386.5C 196.469,378.03 199.636,376.364 206.5,381.5C 211.812,387.479 217.479,393.146 223.5,398.5C 237.188,385.479 250.521,372.146 263.5,358.5C 266.631,355.871 269.631,353.038 272.5,350C 277.799,348.967 280.299,351.134 280,356.5C 276.629,359.703 273.462,363.036 270.5,366.5 Z"/></g>
<g><path style="opacity:1" fill="#fd9e24" d="M 49.5,359.5 C 53.8333,359.5 58.1667,359.5 62.5,359.5C 58.5,362.833 58.5,366.167 62.5,369.5C 58.1667,369.5 53.8333,369.5 49.5,369.5C 46.7508,369.726 44.0841,369.393 41.5,368.5C 38.6799,365.284 39.0133,362.451 42.5,360C 44.8098,359.503 47.1432,359.337 49.5,359.5 Z"/></g>
<g><path style="opacity:1" fill="#fec04e" d="M 62.5,359.5 C 67.1785,359.334 71.8452,359.501 76.5,360C 80.5,363 80.5,366 76.5,369C 71.8452,369.499 67.1785,369.666 62.5,369.5C 58.5,366.167 58.5,362.833 62.5,359.5 Z"/></g>
<g><path style="opacity:1" fill="#d4d4d9" d="M 298.5,361.5 C 308.839,361.334 319.172,361.5 329.5,362C 332.311,365.294 331.978,368.294 328.5,371C 318.833,371.667 309.167,371.667 299.5,371C 295.956,368.127 295.623,364.96 298.5,361.5 Z"/></g>
<g><path style="opacity:1" fill="#36e197" d="M 270.5,366.5 C 274.844,374.044 276.844,382.211 276.5,391C 277.002,398.778 275.335,405.944 271.5,412.5C 271.44,411.957 271.107,411.624 270.5,411.5C 257.801,416.818 245.135,416.651 232.5,411C 230.937,410.241 229.937,409.074 229.5,407.5C 242.833,393.5 256.5,379.833 270.5,366.5 Z"/></g>
<g><path style="opacity:0.995" fill="#3543ae" d="M 429.5,366.5 C 429.5,384.167 429.5,401.833 429.5,419.5C 429.5,426.167 429.5,432.833 429.5,439.5C 429.5,441.167 429.5,442.833 429.5,444.5C 408.807,463.511 385.474,478.511 359.5,489.5C 359.5,475.833 359.5,462.167 359.5,448.5C 366.271,449.302 371.104,446.635 374,440.5C 374.5,416.836 374.667,393.169 374.5,369.5C 374.833,369.5 375.167,369.5 375.5,369.5C 375.333,387.17 375.5,404.836 376,422.5C 397.491,407.179 415.325,388.512 429.5,366.5 Z"/></g>
<g><path style="opacity:1" fill="#fd9e24" d="M 49.5,379.5 C 53.8333,379.5 58.1667,379.5 62.5,379.5C 58.5,382.833 58.5,386.167 62.5,389.5C 58.1667,389.5 53.8333,389.5 49.5,389.5C 46.7508,389.726 44.0841,389.393 41.5,388.5C 38.6799,385.284 39.0133,382.451 42.5,380C 44.8098,379.503 47.1432,379.337 49.5,379.5 Z"/></g>
<g><path style="opacity:1" fill="#fec04e" d="M 62.5,379.5 C 67.1785,379.334 71.8452,379.501 76.5,380C 80.5,383 80.5,386 76.5,389C 71.8452,389.499 67.1785,389.666 62.5,389.5C 58.5,386.167 58.5,382.833 62.5,379.5 Z"/></g>
<g><path style="opacity:1" fill="#d4d4d9" d="M 298.5,384.5 C 318.169,384.333 337.836,384.5 357.5,385C 360.311,388.294 359.978,391.294 356.5,394C 337.5,394.667 318.5,394.667 299.5,394C 295.956,391.127 295.623,387.96 298.5,384.5 Z"/></g>
<g><path style="opacity:0.976" fill="#fe9f22" d="M 42.5,399.5 C 44.8333,399.5 47.1667,399.5 49.5,399.5C 53.8333,399.5 58.1667,399.5 62.5,399.5C 58.5,402.833 58.5,406.167 62.5,409.5C 58.5,409.5 54.5,409.5 50.5,409.5C 47.4816,409.665 44.4816,409.498 41.5,409C 38.627,405.421 38.9603,402.255 42.5,399.5 Z"/></g>
<g><path style="opacity:1" fill="#fec04e" d="M 62.5,399.5 C 67.1785,399.334 71.8452,399.501 76.5,400C 80.5,403 80.5,406 76.5,409C 71.8452,409.499 67.1785,409.666 62.5,409.5C 58.5,406.167 58.5,402.833 62.5,399.5 Z"/></g>
<g><path style="opacity:1" fill="#d5d4d9" d="M 298.5,407.5 C 312.504,407.333 326.504,407.5 340.5,408C 343.311,411.294 342.978,414.294 339.5,417C 326.167,417.667 312.833,417.667 299.5,417C 295.956,414.127 295.623,410.96 298.5,407.5 Z"/></g>
<g><path style="opacity:1" fill="#dbd2cc" d="M 429.5,419.5 C 439.5,419.5 449.5,419.5 459.5,419.5C 459.5,426.167 459.5,432.833 459.5,439.5C 449.5,439.5 439.5,439.5 429.5,439.5C 429.5,432.833 429.5,426.167 429.5,419.5 Z"/></g>
<g><path style="opacity:0.987" fill="#e5554e" d="M 429.5,439.5 C 439.5,439.5 449.5,439.5 459.5,439.5C 459.666,449.839 459.5,460.172 459,470.5C 454.652,478.915 447.819,481.748 438.5,479C 435.265,477.64 432.765,475.473 431,472.5C 429.555,463.274 429.055,453.94 429.5,444.5C 429.5,442.833 429.5,441.167 429.5,439.5 Z"/></g>
</svg>
