<?xml version="1.0" encoding="UTF-8"?>
<!DOCTYPE svg PUBLIC "-//W3C//DTD SVG 1.1//EN" "http://www.w3.org/Graphics/SVG/1.1/DTD/svg11.dtd">
<svg xmlns="http://www.w3.org/2000/svg" version="1.1" width="64px" height="64px" style="shape-rendering:geometricPrecision; text-rendering:geometricPrecision; image-rendering:optimizeQuality; fill-rule:evenodd; clip-rule:evenodd" xmlns:xlink="http://www.w3.org/1999/xlink">
<g><path style="opacity:0.921" fill="#fefffe" d="M 23.5,-0.5 C 28.8333,-0.5 34.1667,-0.5 39.5,-0.5C 51.8333,3.16667 59.8333,11.1667 63.5,23.5C 63.5,28.8333 63.5,34.1667 63.5,39.5C 59.8333,51.8333 51.8333,59.8333 39.5,63.5C 34.1667,63.5 28.8333,63.5 23.5,63.5C 11.1667,59.8333 3.16667,51.8333 -0.5,39.5C -0.5,34.1667 -0.5,28.8333 -0.5,23.5C 3.16667,11.1667 11.1667,3.16667 23.5,-0.5 Z M 29.5,9.5 C 40.5046,10.8452 43.6713,16.5119 39,26.5C 31.782,31.3566 26.1153,30.0232 22,22.5C 20.9525,16.0613 23.4525,11.728 29.5,9.5 Z M 24.5,35.5 C 31.0614,34.9186 37.3947,35.752 43.5,38C 49.8289,45.0206 48.4956,50.0206 39.5,53C 30.8148,55.9153 22.9815,54.4153 16,48.5C 15.0187,41.6516 17.8521,37.3182 24.5,35.5 Z"/></g>
</svg>
